<svg xmlns="http://www.w3.org/2000/svg" width="156.93" height="35" viewBox="0 0 156.93 35"><rect class="svg__rect" x="0" y="0" width="75.07" height="35" fill="#00446C"/><rect class="svg__rect" x="73.07" y="0" width="83.86" height="35" fill="#EAEC00"/><path class="svg__text" d="M15.70 22L14.22 22L14.22 13.47L19.64 13.47L19.64 14.66L15.70 14.66L15.70 17.20L19.13 17.20L19.13 18.38L15.70 18.38L15.70 22ZM29.38 22L23.80 22L23.80 13.47L29.33 13.47L29.33 14.66L25.28 14.66L25.28 17.02L28.78 17.02L28.78 18.19L25.28 18.19L25.28 20.82L29.38 20.82L29.38 22ZM35.05 22L33.57 22L33.57 13.47L35.05 13.47L38.87 19.54L38.87 13.47L40.34 13.47L40.34 22L38.86 22L35.05 15.95L35.05 22ZM50.66 22L45.08 22L45.08 13.47L50.62 13.47L50.62 14.66L46.56 14.66L46.56 17.02L50.06 17.02L50.06 18.19L46.56 18.19L46.56 20.82L50.66 20.82L50.66 22ZM56.33 22L54.85 22L54.85 13.47L57.85 13.47Q59.33 13.47 60.13 14.13Q60.93 14.79 60.93 16.05L60.93 16.05Q60.93 16.90 60.52 17.48Q60.11 18.06 59.37 18.37L59.37 18.37L61.29 21.92L61.29 22L59.70 22L57.99 18.71L56.33 18.71L56.33 22ZM56.33 14.66L56.33 17.52L57.86 17.52Q58.61 17.52 59.03 17.15Q59.45 16.77 59.45 16.11L59.45 16.11Q59.45 15.43 59.06 15.05Q58.67 14.68 57.90 14.66L57.90 14.66L56.33 14.66Z" fill="#EAEC00"/><path class="svg__text" d="M91.80 22L87.26 22L87.26 13.60L91.56 13.60Q93.16 13.60 94.00 14.19Q94.85 14.79 94.85 15.79L94.85 15.79Q94.85 16.39 94.55 16.87Q94.25 17.34 93.71 17.62L93.71 17.62Q94.44 17.87 94.84 18.41Q95.25 18.94 95.25 19.70L95.25 19.70Q95.25 20.80 94.36 21.40Q93.47 22 91.80 22L91.80 22ZM89.61 18.58L89.61 20.28L91.61 20.28Q92.85 20.28 92.85 19.43L92.85 19.43Q92.85 18.58 91.61 18.58L91.61 18.58L89.61 18.58ZM89.61 15.31L89.61 16.94L91.24 16.94Q92.44 16.94 92.44 16.12L92.44 16.12Q92.44 15.31 91.24 15.31L91.24 15.31L89.61 15.31ZM101.38 22L98.96 22L102.67 13.60L105.01 13.60L108.73 22L106.26 22L105.60 20.37L102.05 20.37L101.38 22ZM103.82 15.93L102.74 18.61L104.90 18.61L103.82 15.93ZM115.26 22L112.88 22L112.88 13.60L115.26 13.60L115.26 16.76L118.50 16.76L118.50 13.60L120.87 13.60L120.87 22L118.50 22L118.50 18.72L115.26 18.72L115.26 22ZM125.61 17.80L125.61 17.80Q125.61 16.54 126.21 15.54Q126.80 14.55 127.85 13.99Q128.91 13.43 130.22 13.43L130.22 13.43Q131.38 13.43 132.30 13.84Q133.22 14.25 133.84 15.02L133.84 15.02L132.33 16.39Q131.51 15.40 130.35 15.40L130.35 15.40Q129.66 15.40 129.13 15.70Q128.60 16 128.30 16.54Q128.00 17.09 128.00 17.80L128.00 17.80Q128.00 18.51 128.30 19.05Q128.60 19.60 129.13 19.90Q129.66 20.20 130.35 20.20L130.35 20.20Q131.51 20.20 132.33 19.22L132.33 19.22L133.84 20.58Q133.23 21.35 132.30 21.76Q131.38 22.17 130.22 22.17L130.22 22.17Q128.91 22.17 127.85 21.61Q126.80 21.05 126.21 20.05Q125.61 19.06 125.61 17.80ZM128.35 24.58L128.35 24.58L128.67 23.68Q129.02 23.85 129.40 23.85L129.40 23.85Q130.00 23.85 130.01 23.51L130.01 23.51Q130.01 23.21 129.47 23.21L129.47 23.21L129.02 23.21L129.33 21.89L130.52 21.89L130.35 22.61Q130.88 22.67 131.13 22.94Q131.38 23.21 131.38 23.58L131.38 23.58Q131.38 24.16 130.87 24.49Q130.35 24.83 129.49 24.83L129.49 24.83Q129.19 24.83 128.87 24.76Q128.55 24.69 128.35 24.58ZM145.12 22L138.38 22L138.38 13.60L144.97 13.60L144.97 15.44L140.73 15.44L140.73 16.85L144.46 16.85L144.46 18.63L140.73 18.63L140.73 20.17L145.12 20.17L145.12 22Z" fill="#00446C" x="86.07"/></svg>